<svg width="60" height="60" viewBox="0 0 32 32" fill="none" xmlns="http://www.w3.org/2000/svg"><path fill-rule="evenodd" clip-rule="evenodd" d="M18.118 14.044c-.377.106-.76.213-1.202.333-.216.061-.265.075-.466-.17-.241-.288-.418-.474-.756-.643-1.013-.526-1.994-.373-2.911.254-1.094.745-1.657 1.846-1.64 3.219.015 1.355.9 2.473 2.17 2.66 1.094.152 2.011-.255 2.735-1.119.144-.186.273-.39.434-.626h-3.104c-.338 0-.418-.22-.306-.509.21-.525.596-1.406.82-1.846.049-.102.162-.271.403-.271h5.175c.233-.776.61-1.51 1.113-2.203 1.174-1.627 2.59-2.474 4.503-2.83 1.64-.305 3.185-.135 4.584.864 1.27.915 2.058 2.152 2.268 3.778.273 2.287-.354 4.151-1.85 5.744-1.061 1.135-2.364 1.846-3.86 2.168-.285.056-.57.082-.851.108q-.22.02-.435.045c-1.464-.034-2.799-.475-3.925-1.491a5.36 5.36 0 0 1-1.608-2.639q-.282.601-.675 1.148c-1.158 1.61-2.67 2.61-4.584 2.88-1.576.22-3.04-.101-4.326-1.117-1.19-.95-1.866-2.203-2.043-3.762-.209-1.846.306-3.507 1.367-4.964 1.142-1.575 2.654-2.575 4.503-2.93 1.512-.289 2.96-.102 4.262.83.853.592 1.464 1.406 1.866 2.388.096.153.032.238-.16.288-.564.151-1.029.281-1.501.413m10.64 1.93.011.181c-.08 1.457-.772 2.541-2.042 3.236-.853.458-1.737.508-2.622.102-1.158-.542-1.769-1.88-1.48-3.202.355-1.593 1.32-2.592 2.815-2.948 1.528-.373 2.992.576 3.281 2.253.023.12.03.24.037.378" fill="#00ACD7"/><path d="M2.445 13.852c-.033.05-.016.084.048.084l4.79.017c.048 0 .128-.05.16-.101l.274-.44c.032-.052.016-.102-.048-.102h-4.71c-.064 0-.144.034-.177.084zM.016 15.41c-.032.051-.016.085.048.085l6.575-.017c.065 0 .129-.034.145-.102l.129-.406c.016-.051-.016-.102-.08-.102H.53c-.065 0-.145.034-.177.085zm3.892 1.542c-.032.05-.016.102.048.102l2.474.017c.048 0 .113-.051.113-.119l.032-.407c0-.067-.032-.118-.097-.118H4.294c-.064 0-.129.05-.16.102z" fill="#00ACD7"/></svg>
