<svg width="60" height="60" viewBox="0 0 32 32" fill="none" xmlns="http://www.w3.org/2000/svg">
  <path d="M18.679 15.976c0-1.435-1.2-2.597-2.679-2.597-1.48 0-2.679 1.162-2.679 2.597 0 1.434 1.2 2.597 2.679 2.597 1.48 0 2.679-1.163 2.679-2.597" fill="#53C1DE"/>
  <path fill-rule="evenodd" clip-rule="evenodd" d="M24.7 11.154c.566-2.23 1.277-6.363-1.23-7.764-2.495-1.395-5.742 1.278-7.456 2.883-1.71-1.589-5.048-4.25-7.552-2.845-2.494 1.4-1.725 5.465-1.147 7.708-2.327.64-6.315 2.02-6.315 4.84 0 2.811 3.984 4.313 6.297 4.953-.58 2.255-1.311 6.262 1.186 7.659 2.514 1.405 5.842-1.194 7.572-2.816 1.726 1.614 4.942 4.23 7.437 2.83 2.504-1.406 1.852-5.484 1.273-7.74 2.242-.641 6.235-2.11 6.235-4.886 0-2.793-4.01-4.184-6.3-4.822m-.284 8.513a29 29 0 0 0-1.519-3.685 29 29 0 0 0 1.46-3.631c1.679.472 5.361 1.55 5.361 3.625 0 2.094-3.533 3.183-5.302 3.691m-1.566 7.859c-1.862 1.045-4.628-1.456-5.902-2.645a29 29 0 0 0 2.514-3.096 31 31 0 0 0 4.064-.607c.407 1.595 1.194 5.298-.676 6.348m-13.726-.015c-1.863-1.041-1.011-4.616-.584-6.278a31 31 0 0 0 4.042.568 31 31 0 0 0 2.576 3.085c-1.083 1.015-4.163 3.671-6.034 2.625M2.28 15.976c0-2.102 3.661-3.173 5.378-3.643a29 29 0 0 0 1.462 3.673 30 30 0 0 0-1.48 3.726c-1.637-.454-5.36-1.653-5.36-3.756M9.104 4.504c1.87-1.05 4.77 1.506 6.012 2.656a30 30 0 0 0-2.556 3.066c-1.41.127-2.761.33-4.003.604-.466-1.81-1.321-5.278.547-6.326m11.275 7.073c.957.117 1.875.273 2.736.464a26 26 0 0 1-.96 2.504 41 41 0 0 0-1.776-2.968m-4.365-3.529a27 27 0 0 1 1.766 2.066 39 39 0 0 0-3.546 0 28 28 0 0 1 1.78-2.066m-6.157 6.496a27 27 0 0 1-.954-2.517 30 30 0 0 1 2.72-.452 36 36 0 0 0-1.766 2.97m1.793 5.922a28 28 0 0 1-2.764-.431c.264-.83.59-1.692.972-2.568a36 36 0 0 0 1.792 2.999m4.4 3.525a28 28 0 0 1-1.805-2.094q1.783.069 3.566-.006a27 27 0 0 1-1.761 2.1m6.117-6.569c.4.886.739 1.744 1.007 2.559a28 28 0 0 1-2.798.462 41 41 0 0 0 1.79-3.02m-3.42 3.172a41.5 41.5 0 0 1-5.463.01 35 35 0 0 1-2.746-4.598 35 35 0 0 1 2.73-4.59 37.4 37.4 0 0 1 5.469 0 39 39 0 0 1 2.739 4.572 39 39 0 0 1-2.729 4.606M22.83 4.467c1.87 1.046 1.038 4.76.63 6.376a32 32 0 0 0-4.012-.615 29 29 0 0 0-2.536-3.069c1.258-1.175 4.066-3.728 5.918-2.692" fill="#53C1DE"/>
</svg>
