<svg width="1024" height="1024" viewBox="0 0 1024 1024" fill="#496bbe"
    xmlns="http://www.w3.org/2000/svg">
    <path
        d="M509.125 148.687C510.164 148.69 511.203 148.692 512.273 148.694C527.401 148.744 542.104 149.144 557 152C558.108 152.204 559.216 152.408 560.357 152.618C591.412 158.413 621.174 167.445 650.711 178.496C681.327 189.916 717.804 200.071 749.283 185.978C752.844 184.282 756.322 182.476 759.777 180.574C763 179 763 179 767 179C769.483 180.131 771.668 181.565 774 183C772.543 186.887 770.744 190.433 768.727 194.059C768.407 194.635 768.087 195.212 767.758 195.806C767.073 197.042 766.386 198.277 765.698 199.511C764.609 201.467 763.523 203.425 762.438 205.384C760.975 208.027 759.51 210.669 758.045 213.311C746.239 234.602 734.817 256.096 724.027 277.922C722.501 281.007 720.945 284.075 719.379 287.141C705.04 315.324 690.016 344.952 680 375C676.164 374.467 673.847 373.653 671 371C670.198 368.669 670.198 368.669 669.762 365.898C669.497 364.347 669.497 364.347 669.228 362.763C669.049 361.645 668.871 360.527 668.688 359.375C659.403 307.034 635.294 253.514 590.777 221.809C558.349 199.62 519.013 190.874 480.078 197.076C456.458 201.645 435.134 212.287 417 228C416.434 228.488 415.868 228.975 415.285 229.478C407.716 236.064 401.072 242.982 395 251C394.57 251.555 394.14 252.111 393.696 252.683C386.5 261.983 380.418 271.569 375 282C374.61 282.733 374.22 283.466 373.818 284.221C353.09 323.515 344.817 369.062 339.813 412.75C339.734 413.421 339.655 414.093 339.573 414.785C336.195 443.96 335.621 473.228 335.688 502.562C335.69 504.294 335.692 506.025 335.694 507.756C335.736 532.598 335.976 557.311 339 582C339.102 582.844 339.204 583.689 339.309 584.558C342.03 606.948 345.38 629.134 351 651C351.259 652.022 351.517 653.044 351.784 654.097C360.545 688.276 373.282 721.567 393 751C393.406 751.613 393.813 752.226 394.231 752.857C400.72 762.557 408.162 771.369 416 780C416.697 780.771 417.395 781.542 418.113 782.336C443.482 808.954 482.282 827.212 519.187 828.161C520.673 828.181 522.159 828.195 523.645 828.203C524.454 828.209 525.263 828.215 526.097 828.22C527.805 828.23 529.514 828.236 531.222 828.24C533.768 828.25 536.312 828.281 538.857 828.313C575.197 828.547 611.39 817.092 639 793C639.964 792.169 640.928 791.337 641.922 790.48C685.143 752.514 700.82 692.738 706.34 637.602C707.242 629.005 708.703 622.144 715 616C720.074 612.726 726.207 613.545 732 614C737.003 615.608 740.283 618.523 743 623C758.76 660.079 740.912 715.403 726.75 750.625C716.88 774.533 704.427 795.83 687 815C685.745 816.381 685.745 816.381 684.465 817.789C648.478 855.459 593.129 873.106 542.089 875.115C539.004 875.18 535.921 875.216 532.836 875.238C531.697 875.248 530.559 875.258 529.386 875.268C504.651 875.437 480.401 875.447 456 871C454.252 870.687 454.252 870.687 452.468 870.367C428.811 865.965 405.6 858.654 384 848C382.76 847.393 382.76 847.393 381.495 846.774C363.742 838.007 347.351 827.507 332 815C331.455 814.558 330.909 814.115 330.347 813.659C316.594 802.415 303.939 790.007 293 776C291.564 774.291 290.126 772.582 288.688 770.875C223.647 690.869 207.126 580.217 214.391 458.967C222.773 380.464 251.233 304.55 304 245C304.811 244.078 305.622 243.157 306.457 242.207C318.335 228.979 330.777 215.723 345 205C346.161 204.088 347.321 203.175 348.48 202.262C394.806 166.161 450.725 148.469 509.125 148.687Z"
        fill="#496bbe" />
    <path
        d="M521.188 223.625C521.913 223.626 522.638 223.626 523.385 223.627C534.681 223.666 545.223 224.428 556 228C556.667 228.209 557.333 228.418 558.02 228.633C575.264 234.126 590.047 243.637 604 255C604.68 255.548 605.361 256.095 606.062 256.66C608.072 258.303 610.04 259.985 612 261.688C612.606 262.185 613.212 262.683 613.836 263.196C616.371 265.486 617.839 266.946 618.367 270.397C618.374 272.632 618.268 274.782 618 277C614.284 274.875 610.842 272.485 607.381 269.978C575.923 247.247 542.912 234.036 503.387 239.699C482.08 243.444 463.829 253.572 448 268C447.346 268.571 446.693 269.142 446.02 269.73C406.404 306.335 396.301 372.705 391 423C390.886 424.063 390.886 424.063 390.769 425.148C388.143 449.817 387.712 474.479 387.69 499.263C387.688 501.58 387.682 503.896 387.677 506.212C387.629 533.119 388.598 559.951 391.813 586.688C391.896 587.399 391.98 588.111 392.067 588.845C397.715 636.496 408.082 685.437 430.955 728.05C431.686 729.415 432.408 730.784 433.123 732.157C442.294 749.762 453.754 765.129 468 779C468.45 779.495 468.9 779.99 469.363 780.5C480.605 792.551 495.462 799.746 510 807C510 808.98 510 810.96 510 813C483.528 812.055 459.867 792.153 442.676 773.84C434.142 764.471 427.468 753.851 421 743C420.62 742.373 420.24 741.746 419.848 741.1C377.887 671.558 369.505 583.251 369.682 503.752C369.688 501.211 369.69 498.669 369.692 496.127C369.724 470.657 370.207 445.341 373 420C373.073 419.32 373.145 418.641 373.22 417.941C378.808 365.731 390.021 306.517 426 266C426.705 265.163 427.41 264.327 428.137 263.465C437.249 252.88 447.878 244.855 460 238C461.379 237.199 461.379 237.199 462.785 236.383C468.936 233.044 475.269 230.792 481.938 228.75C482.736 228.504 483.534 228.257 484.356 228.003C496.494 224.462 508.617 223.589 521.188 223.625Z"
        fill="#496bbe" />
    <path
        d="M777 638C782.813 639.74 787.832 641.811 793 645C793.285 654.168 792.431 663.158 791.375 672.25C791.288 673.01 791.2 673.77 791.11 674.553C785.16 725.615 771.525 779.698 741 822C740.304 822.969 739.608 823.939 738.891 824.938C701.918 875.283 649.533 905.32 588 915C586.704 915.224 586.704 915.224 585.381 915.453C569.117 918.205 552.826 918.316 536.375 918.375C535.302 918.383 534.229 918.391 533.123 918.399C512.999 918.513 493.14 916.867 473.5 912.312C472.385 912.058 471.271 911.803 470.122 911.54C436.044 903.467 403.984 888.539 375 869C373.848 868.249 373.848 868.249 372.673 867.482C371.939 866.978 371.205 866.473 370.449 865.953C369.786 865.506 369.123 865.059 368.44 864.599C367 863 367 863 366.784 860.315C366.891 859.169 366.891 859.169 367 858C370.361 859.281 373.469 860.732 376.598 862.504C444.451 900.498 529.284 913.325 605 893C634.176 884.75 661.249 871.924 685 853C686.483 851.824 686.483 851.824 687.996 850.625C703.644 837.944 717.402 823.452 729 807C729.453 806.365 729.906 805.73 730.373 805.076C762.039 760.402 770.78 704.704 775.1 651.269C775.206 649.965 775.313 648.66 775.422 647.316C775.51 646.166 775.599 645.016 775.69 643.83C776 641 776 641 777 638Z"
        fill="#496bbe" />
    <path
        d="M800 201C800.771 201.422 801.542 201.843 802.336 202.277C803.339 202.825 804.342 203.373 805.375 203.938C806.373 204.483 807.37 205.028 808.398 205.59C809.921 206.415 811.451 207.226 813 208C812.421 211.8 811.344 214.503 809.367 217.789C808.816 218.717 808.265 219.644 807.697 220.6C807.096 221.598 806.494 222.596 805.875 223.625C797.984 236.939 790.446 250.432 783 264C782.439 265.021 781.879 266.042 781.301 267.094C773.738 280.891 766.425 294.809 759.215 308.793C756.974 313.133 754.7 317.453 752.385 321.754C743.373 338.522 735.552 355.889 727.625 373.188C727.282 373.934 726.94 374.681 726.587 375.45C725.589 377.626 724.595 379.803 723.602 381.98C723.286 382.669 722.97 383.358 722.645 384.068C720.287 389.255 718.18 394.518 716.216 399.868C715 402 715 402 713.06 402.903C709.666 403.063 707.091 401.219 704.25 399.562C703.146 398.933 702.042 398.304 700.905 397.656C699.467 396.836 699.467 396.836 698 396C704.469 380.374 711.634 365.159 719.125 350C720.241 347.735 721.356 345.469 722.472 343.204C733.347 321.156 744.404 299.27 756.625 277.93C760.471 271.203 764.204 264.415 767.938 257.625C778.399 238.619 788.878 219.63 800 201Z"
        fill="#496bbe" />
    <path
        d="M946 0C971.74 0 997.48 0 1024 0C1024 0.33 1024 0.66 1024 1C998.26 1 972.52 1 946 1C946 0.67 946 0.34 946 0Z"
        fill="#496bbe" />
</svg>